<svg width="144" height="62" viewBox="0 0 144 62" fill="none" xmlns="http://www.w3.org/2000/svg">
<path d="M6.56 40.296L2.56 41.576V18.792L6.56 17.544V40.296ZM22.798 24.712C23.5447 24.712 24.0887 24.936 24.43 25.384C24.7713 25.8107 24.9847 26.3227 25.07 26.92C25.1553 27.496 25.198 28.2427 25.198 29.16V38.056C25.198 38.312 25.2727 38.5573 25.422 38.792C25.5927 39.0053 25.7953 39.112 26.03 39.112C26.35 39.112 26.6273 39.016 26.862 38.824C27.118 38.6107 27.3847 38.3333 27.662 37.992L28.206 38.6C27.822 39.3467 27.2887 39.976 26.606 40.488C25.9447 40.9787 25.23 41.224 24.462 41.224C23.438 41.224 22.67 40.936 22.158 40.36C21.646 39.7627 21.39 38.9307 21.39 37.864V29.48C21.39 29.1813 21.358 28.9253 21.294 28.712C21.23 28.4987 21.0807 28.392 20.846 28.392C20.1207 28.392 19.3847 29.1707 18.638 30.728C17.8913 32.264 17.262 34.0347 16.75 36.04C16.238 38.0453 15.982 39.56 15.982 40.584L12.238 41.416V27.976C12.238 27.656 12.1633 27.3893 12.014 27.176C11.8647 26.9627 11.6513 26.856 11.374 26.856C11.0753 26.856 10.7767 26.984 10.478 27.24C10.2007 27.4747 9.966 27.752 9.774 28.072L9.198 27.432C9.518 26.6853 10.0193 26.0453 10.702 25.512C11.3847 24.9787 12.1207 24.712 12.91 24.712C13.9767 24.712 14.7553 25.0107 15.246 25.608C15.7367 26.184 15.982 26.9947 15.982 28.04V34.216H16.11C16.686 31.848 17.5393 29.672 18.67 27.688C19.822 25.704 21.198 24.712 22.798 24.712ZM44.2425 37.928C44.2425 38.2267 44.3065 38.4933 44.4345 38.728C44.5838 38.9413 44.7972 39.048 45.0745 39.048C45.3518 39.048 45.6292 38.9307 45.9065 38.696C46.2052 38.4613 46.4292 38.2053 46.5785 37.928L47.2825 38.536C46.8985 39.2827 46.3652 39.9227 45.6825 40.456C45.0212 40.968 44.3065 41.224 43.5385 41.224C42.4292 41.224 41.6292 40.9253 41.1385 40.328C40.6478 39.7093 40.4132 38.7707 40.4345 37.512H40.2745C39.7838 38.6213 39.1438 39.5493 38.3545 40.296C37.5652 41.0213 36.6158 41.384 35.5065 41.384C34.3332 41.384 33.3305 41.0853 32.4985 40.488C31.6665 39.8907 31.0372 39.0907 30.6105 38.088C30.1838 37.064 29.9705 35.9333 29.9705 34.696C29.9705 33.1173 30.2905 31.5707 30.9305 30.056C31.5918 28.52 32.5412 27.2613 33.7785 26.28C35.0158 25.2987 36.4558 24.808 38.0985 24.808C38.9305 24.808 39.6878 25.0107 40.3705 25.416V12.776L44.2425 11.432V37.928ZM38.0345 26.856C37.0105 26.856 36.1572 27.208 35.4745 27.912C34.8132 28.5947 34.3225 29.448 34.0025 30.472C33.6825 31.4747 33.5225 32.4667 33.5225 33.448C33.5225 34.7707 33.7785 36.0293 34.2905 37.224C34.8238 38.4187 35.6558 39.016 36.7865 39.016C38.1518 39.016 39.0905 38.3227 39.6025 36.936C40.1145 35.528 40.3705 34.0027 40.3705 32.36V27.912C39.6665 27.208 38.8878 26.856 38.0345 26.856ZM57.225 25.384C55.817 26.3867 54.7077 27.528 53.897 28.808C53.1077 30.0667 52.713 31.5493 52.713 33.256C52.713 34.1947 52.8943 35.144 53.257 36.104C53.6197 37.064 54.153 37.864 54.857 38.504C55.561 39.1227 56.4037 39.432 57.385 39.432C58.6223 39.432 59.6143 38.984 60.361 38.088C61.129 37.192 61.513 36.0827 61.513 34.76C61.513 33.7573 61.2463 32.744 60.713 31.72C60.201 30.6747 59.5077 29.8 58.633 29.096C57.7583 28.3707 56.8197 27.9653 55.817 27.88C56.265 27.3893 56.745 26.9413 57.257 26.536C57.7903 26.1307 58.4517 25.64 59.241 25.064C60.777 25.576 61.993 26.5253 62.889 27.912C63.8063 29.2987 64.265 30.824 64.265 32.488C64.265 33.96 63.9343 35.3893 63.273 36.776C62.633 38.1627 61.6943 39.2933 60.457 40.168C59.241 41.0213 57.8223 41.448 56.201 41.448C54.857 41.448 53.6197 41.1387 52.489 40.52C51.3797 39.88 50.4943 39.016 49.833 37.928C49.1717 36.8187 48.841 35.6027 48.841 34.28C48.841 31.9973 49.5557 29.992 50.985 28.264C52.4357 26.536 54.313 25.3307 56.617 24.648L57.225 25.384ZM79.5168 24.712C80.2634 24.712 80.8074 24.936 81.1488 25.384C81.4901 25.8107 81.7034 26.3227 81.7888 26.92C81.8741 27.496 81.9167 28.2427 81.9167 29.16V38.056C81.9167 38.312 81.9914 38.5573 82.1408 38.792C82.3114 39.0053 82.5141 39.112 82.7488 39.112C83.0688 39.112 83.3461 39.016 83.5808 38.824C83.8368 38.6107 84.1034 38.3333 84.3808 37.992L84.9248 38.6C84.5408 39.3467 84.0074 39.976 83.3248 40.488C82.6634 40.9787 81.9488 41.224 81.1808 41.224C80.1568 41.224 79.3888 40.936 78.8768 40.36C78.3648 39.7627 78.1088 38.9307 78.1088 37.864V29.48C78.1088 29.1813 78.0768 28.9253 78.0128 28.712C77.9488 28.4987 77.7994 28.392 77.5648 28.392C76.8394 28.392 76.1034 29.1707 75.3568 30.728C74.6101 32.264 73.9808 34.0347 73.4688 36.04C72.9568 38.0453 72.7008 39.56 72.7008 40.584L68.9568 41.416V27.976C68.9568 27.656 68.8821 27.3893 68.7328 27.176C68.5834 26.9627 68.3701 26.856 68.0928 26.856C67.7941 26.856 67.4954 26.984 67.1968 27.24C66.9194 27.4747 66.6848 27.752 66.4928 28.072L65.9168 27.432C66.2368 26.6853 66.7381 26.0453 67.4208 25.512C68.1034 24.9787 68.8394 24.712 69.6288 24.712C70.6954 24.712 71.4741 25.0107 71.9648 25.608C72.4554 26.184 72.7008 26.9947 72.7008 28.04V34.216H72.8288C73.4048 31.848 74.2581 29.672 75.3888 27.688C76.5408 25.704 77.9168 24.712 79.5168 24.712ZM96.0333 24.712C97.2706 24.712 98.3053 25.032 99.1373 25.672C99.9693 26.2907 100.385 27.1973 100.385 28.392C100.385 29.352 99.8626 30.4293 98.8173 31.624C97.7933 32.7973 96.5666 33.896 95.1373 34.92C93.7293 35.9227 92.5239 36.648 91.5213 37.096C92.4173 38.5253 93.7293 39.24 95.4573 39.24C96.4173 39.24 97.3773 38.9733 98.3373 38.44C99.3186 37.8853 100.151 37.16 100.833 36.264L101.473 37.032C100.364 38.4187 99.1906 39.496 97.9533 40.264C96.7373 41.0107 95.2866 41.384 93.6013 41.384C92.2359 41.384 91.0093 41.0747 89.9213 40.456C88.8546 39.8373 88.0119 38.9947 87.3932 37.928C86.7959 36.84 86.4973 35.624 86.4973 34.28C86.4973 32.6587 86.9346 31.112 87.8093 29.64C88.7053 28.1467 89.8893 26.952 91.3613 26.056C92.8333 25.16 94.3906 24.712 96.0333 24.712ZM94.2093 26.792C93.3986 26.792 92.6733 27.0907 92.0333 27.688C91.3933 28.264 90.8919 29.0107 90.5293 29.928C90.1666 30.8453 89.9852 31.7947 89.9852 32.776C89.9852 34.056 90.2626 35.1547 90.8173 36.072C91.6066 35.624 92.4386 35.0053 93.3133 34.216C94.2093 33.4053 94.9559 32.5413 95.5533 31.624C96.1506 30.7067 96.4493 29.8747 96.4493 29.128C96.4493 28.3813 96.2466 27.8053 95.8413 27.4C95.4573 26.9947 94.9133 26.792 94.2093 26.792ZM108.617 23.688C110.068 23.688 110.793 24.264 110.793 25.416C110.772 25.928 110.665 26.376 110.473 26.76C110.281 27.144 110.068 27.4853 109.833 27.784C109.62 28.0827 109.471 28.2853 109.385 28.392C109.663 28.712 110.164 29.1707 110.889 29.768C111.551 30.3013 112.084 30.792 112.489 31.24C112.895 31.6667 113.236 32.2213 113.513 32.904C113.791 33.5653 113.929 34.376 113.929 35.336C113.929 36.4453 113.652 37.4693 113.097 38.408C112.564 39.3253 111.828 40.0507 110.889 40.584C109.951 41.1173 108.916 41.384 107.785 41.384C106.953 41.384 106.089 41.2347 105.193 40.936C104.297 40.6373 103.625 40.2213 103.177 39.688L105.513 36.552C105.961 37.2347 106.495 37.8427 107.113 38.376C107.732 38.9093 108.351 39.176 108.969 39.176C109.759 39.176 110.441 38.9093 111.017 38.376C111.593 37.8427 111.881 37.1707 111.881 36.36C111.881 35.6987 111.604 35.048 111.049 34.408C110.495 33.768 109.705 32.9893 108.681 32.072C107.977 31.4533 107.529 31.0373 107.337 30.824L105.161 33.992L104.009 33.224L106.505 29.768C106.079 29 105.865 28.1147 105.865 27.112C105.865 26.1307 106.1 25.32 106.569 24.68C107.039 24.0187 107.721 23.688 108.617 23.688ZM108.617 25C108.361 25 108.191 25.0747 108.105 25.224C108.02 25.3733 107.977 25.5867 107.977 25.864C107.977 26.0987 108.02 26.3333 108.105 26.568C108.191 26.8027 108.287 27.0373 108.393 27.272C108.628 27.1013 108.831 26.8453 109.001 26.504C109.172 26.1627 109.257 25.864 109.257 25.608C109.257 25.4373 109.193 25.2987 109.065 25.192C108.959 25.064 108.809 25 108.617 25ZM120.754 21.64L118.738 22.28L117.426 15.592L121.874 14.088L120.754 21.64ZM121.778 38.056C121.778 38.376 121.853 38.632 122.002 38.824C122.151 39.016 122.354 39.112 122.61 39.112C123.143 39.112 123.687 38.7387 124.242 37.992L124.818 38.6C124.349 39.4533 123.741 40.104 122.994 40.552C122.269 41 121.543 41.224 120.818 41.224C118.877 41.224 117.906 40.104 117.906 37.864V26.344L121.778 25V38.056ZM135.427 25C136.557 25 137.603 25.224 138.563 25.672C139.544 26.12 140.269 26.8133 140.739 27.752L137.635 29.032C137.336 28.4773 136.92 28.0187 136.387 27.656C135.853 27.2933 135.288 27.112 134.691 27.112C133.261 27.112 132.131 27.7093 131.299 28.904C130.467 30.0987 130.051 31.592 130.051 33.384C130.051 35.0267 130.296 36.3813 130.787 37.448C131.277 38.4933 132.056 39.016 133.123 39.016C134.616 39.016 135.64 38.3227 136.195 36.936C136.749 35.528 137.027 34.0027 137.027 32.36V30.952L140.771 29.608V37.928C140.771 38.2267 140.835 38.4933 140.963 38.728C141.112 38.9413 141.325 39.048 141.603 39.048C142.136 39.048 142.68 38.6747 143.235 37.928L143.843 38.536C143.523 39.2827 143.011 39.9227 142.307 40.456C141.624 40.968 140.888 41.224 140.099 41.224C139.075 41.224 138.328 40.8827 137.859 40.2C137.389 39.496 137.155 38.6 137.155 37.512H137.027C136.515 38.664 135.832 39.6027 134.979 40.328C134.125 41.032 133.133 41.384 132.003 41.384C130.296 41.384 128.973 40.7653 128.035 39.528C127.117 38.2693 126.659 36.6373 126.659 34.632C126.659 32.9253 127.021 31.336 127.747 29.864C128.493 28.392 129.528 27.2187 130.851 26.344C132.195 25.448 133.72 25 135.427 25Z" fill="white"/>
<path d="M121.875 14.0859L120.758 21.6484L118.738 22.2812L117.422 15.5859L121.875 14.0859Z" fill="#DC3535"/>
<path d="M59.518 7.836C59.1913 8.30267 58.762 8.69 58.23 8.998C57.698 9.306 57.1613 9.46 56.62 9.46C56.4427 9.684 56.312 9.89867 56.228 10.104C56.1533 10.3093 56.116 10.5473 56.116 10.818V15.34C56.116 16.012 55.9667 16.5767 55.668 17.034C55.3787 17.4913 54.926 17.9113 54.31 18.294L54.016 17.958C54.2587 17.65 54.38 17.1973 54.38 16.6V11.63C54.38 11.238 54.5013 10.86 54.744 10.496C54.996 10.1227 55.304 9.77733 55.668 9.46L53.806 9.446C53.4887 9.446 53.1993 9.516 52.938 9.656C52.6767 9.796 52.4293 10.0107 52.196 10.3L51.888 10.006C52.3267 9.42733 52.7747 8.97 53.232 8.634C53.6987 8.298 54.226 8.13 54.814 8.13H56.886C57.334 8.13 57.7867 8.09267 58.244 8.018C58.7013 7.934 59.0467 7.78933 59.28 7.584L59.518 7.836ZM61.5816 14.528H61.6376C61.8429 13.6227 62.1789 12.7873 62.6456 12.022C63.1122 11.2567 63.6862 10.874 64.3676 10.874C64.6849 10.874 64.9182 10.972 65.0676 11.168C65.2262 11.364 65.3242 11.5973 65.3616 11.868C65.3989 12.1293 65.4176 12.4513 65.4176 12.834V16.712C65.4176 16.824 65.4502 16.9313 65.5156 17.034C65.5902 17.1273 65.6929 17.174 65.8236 17.174C66.0476 17.174 66.2809 17.0107 66.5236 16.684L66.7616 16.95C66.6029 17.2673 66.3742 17.538 66.0756 17.762C65.7769 17.986 65.4502 18.098 65.0956 18.098C64.2089 18.098 63.7656 17.608 63.7656 16.628V12.96C63.7656 12.8387 63.7422 12.7313 63.6956 12.638C63.6582 12.5353 63.5882 12.484 63.4856 12.484C63.0936 12.484 62.7529 12.8107 62.4636 13.464C62.1836 14.1173 61.9642 14.8733 61.8056 15.732C61.6562 16.5907 61.5816 17.286 61.5816 17.818L59.9016 18.182V5.652L61.5816 5.064V14.528ZM69.3377 9.53L68.4557 9.81L67.8817 6.884L69.8277 6.226L69.3377 9.53ZM69.7857 16.712C69.7857 16.852 69.8184 16.964 69.8837 17.048C69.949 17.132 70.0377 17.174 70.1497 17.174C70.383 17.174 70.621 17.0107 70.8637 16.684L71.1157 16.95C70.9104 17.3233 70.6444 17.608 70.3177 17.804C70.0004 18 69.683 18.098 69.3657 18.098C68.5164 18.098 68.0917 17.608 68.0917 16.628V11.588L69.7857 11V16.712ZM74.063 10.426C74.6977 10.426 75.015 10.678 75.015 11.182C75.0057 11.406 74.959 11.602 74.875 11.77C74.791 11.938 74.6977 12.0873 74.595 12.218C74.5017 12.3487 74.4363 12.4373 74.399 12.484C74.5203 12.624 74.7397 12.8247 75.057 13.086C75.3463 13.3193 75.5797 13.534 75.757 13.73C75.9343 13.9167 76.0837 14.1593 76.205 14.458C76.3263 14.7473 76.387 15.102 76.387 15.522C76.387 16.0073 76.2657 16.4553 76.023 16.866C75.7897 17.2673 75.4677 17.5847 75.057 17.818C74.6463 18.0513 74.1937 18.168 73.699 18.168C73.335 18.168 72.957 18.1027 72.565 17.972C72.173 17.8413 71.879 17.6593 71.683 17.426L72.705 16.054C72.901 16.3527 73.1343 16.6187 73.405 16.852C73.6757 17.0853 73.9463 17.202 74.217 17.202C74.5623 17.202 74.861 17.0853 75.113 16.852C75.365 16.6187 75.491 16.3247 75.491 15.97C75.491 15.6807 75.3697 15.396 75.127 15.116C74.8843 14.836 74.539 14.4953 74.091 14.094C73.783 13.8233 73.587 13.6413 73.503 13.548L72.551 14.934L72.047 14.598L73.139 13.086C72.9523 12.75 72.859 12.3627 72.859 11.924C72.859 11.4947 72.9617 11.14 73.167 10.86C73.3723 10.5707 73.671 10.426 74.063 10.426ZM74.063 11C73.951 11 73.8763 11.0327 73.839 11.098C73.8017 11.1633 73.783 11.2567 73.783 11.378C73.783 11.4807 73.8017 11.5833 73.839 11.686C73.8763 11.7887 73.9183 11.8913 73.965 11.994C74.0677 11.9193 74.1563 11.8073 74.231 11.658C74.3057 11.5087 74.343 11.378 74.343 11.266C74.343 11.1913 74.315 11.1307 74.259 11.084C74.2123 11.028 74.147 11 74.063 11ZM82.3807 9.53L81.4987 9.81L80.9247 6.884L82.8707 6.226L82.3807 9.53ZM82.8287 16.712C82.8287 16.852 82.8613 16.964 82.9267 17.048C82.992 17.132 83.0807 17.174 83.1927 17.174C83.426 17.174 83.664 17.0107 83.9067 16.684L84.1587 16.95C83.9533 17.3233 83.6873 17.608 83.3607 17.804C83.0433 18 82.726 18.098 82.4087 18.098C81.5593 18.098 81.1347 17.608 81.1347 16.628V11.588L82.8287 11V16.712ZM87.106 10.426C87.7407 10.426 88.058 10.678 88.058 11.182C88.0487 11.406 88.002 11.602 87.918 11.77C87.834 11.938 87.7407 12.0873 87.638 12.218C87.5447 12.3487 87.4793 12.4373 87.442 12.484C87.5633 12.624 87.7827 12.8247 88.1 13.086C88.3893 13.3193 88.6227 13.534 88.8 13.73C88.9773 13.9167 89.1267 14.1593 89.248 14.458C89.3693 14.7473 89.43 15.102 89.43 15.522C89.43 16.0073 89.3087 16.4553 89.066 16.866C88.8327 17.2673 88.5107 17.5847 88.1 17.818C87.6893 18.0513 87.2367 18.168 86.742 18.168C86.378 18.168 86 18.1027 85.608 17.972C85.216 17.8413 84.922 17.6593 84.726 17.426L85.748 16.054C85.944 16.3527 86.1773 16.6187 86.448 16.852C86.7187 17.0853 86.9893 17.202 87.26 17.202C87.6053 17.202 87.904 17.0853 88.156 16.852C88.408 16.6187 88.534 16.3247 88.534 15.97C88.534 15.6807 88.4127 15.396 88.17 15.116C87.9273 14.836 87.582 14.4953 87.134 14.094C86.826 13.8233 86.63 13.6413 86.546 13.548L85.594 14.934L85.09 14.598L86.182 13.086C85.9953 12.75 85.902 12.3627 85.902 11.924C85.902 11.4947 86.0047 11.14 86.21 10.86C86.4153 10.5707 86.714 10.426 87.106 10.426ZM87.106 11C86.994 11 86.9193 11.0327 86.882 11.098C86.8447 11.1633 86.826 11.2567 86.826 11.378C86.826 11.4807 86.8447 11.5833 86.882 11.686C86.9193 11.7887 86.9613 11.8913 87.008 11.994C87.1107 11.9193 87.1993 11.8073 87.274 11.658C87.3487 11.5087 87.386 11.378 87.386 11.266C87.386 11.1913 87.358 11.1307 87.302 11.084C87.2553 11.028 87.19 11 87.106 11Z" fill="white"/>
</svg>
