<svg width="87" height="185" viewBox="0 0 87 185" fill="none" xmlns="http://www.w3.org/2000/svg">
<path d="M43.4819 0L18.1799 25.3L41.5499 48.67V57.04H34.9919V60.872H38.8439L29.8079 69.902L32.5199 72.608L41.5499 63.578V67.916L29.8099 79.652L32.5199 82.358L41.5499 73.328V77.66L29.8139 89.32L32.5139 92.04L41.5499 83.062V88.282H45.3819V83.062L54.4179 92.038L57.1179 89.32L45.3819 77.66V73.328L54.4119 82.358L57.1199 79.65L45.3799 67.914V63.578L54.4119 72.608L57.1199 69.9L48.0899 60.87H51.9399V57.038H45.3799V48.696L68.7799 25.296L43.4819 0ZM43.4819 5.414L63.3719 25.3L43.4819 45.18L23.6019 25.3L43.4819 5.414ZM43.4279 10.762L28.8959 25.302L43.4279 39.838L57.9659 25.3L43.4279 10.762ZM43.4279 16.182L52.5479 25.302L43.4279 34.418L34.3099 25.298L43.4279 16.182Z" fill="#573923"/>
<path d="M70.478 42.602L54.086 58.994L70.478 75.382L86.868 58.994L70.478 42.602ZM16.392 42.616L0 59.008L16.392 75.4L32.784 59.008L16.392 42.616ZM70.478 48.02L81.45 58.99L70.476 69.964L59.504 58.994L70.478 48.02ZM16.392 48.032L27.366 59.006L16.392 69.98L5.418 59.008L16.392 48.032ZM70.476 53.794L65.28 58.994L70.476 64.19L75.676 58.994L70.476 53.794ZM16.392 53.81L11.192 59.01L16.392 64.204L21.588 59.004L16.392 53.81Z" fill="#1E1E1E"/>
<path d="M43.386 184.04L68.688 158.74L45.318 135.37L45.318 127L51.876 127L51.876 123.168L48.024 123.168L57.06 114.138L54.348 111.432L45.318 120.462L45.318 116.124L57.058 104.388L54.348 101.682L45.318 110.712L45.318 106.38L57.054 94.72L54.354 92L45.318 100.978L45.318 95.758L41.486 95.758L41.486 100.978L32.45 92.002L29.75 94.72L41.486 106.38L41.486 110.712L32.456 101.682L29.748 104.39L41.488 116.126L41.488 120.462L32.456 111.432L29.748 114.14L38.778 123.17L34.928 123.17L34.928 127.002L41.488 127.002L41.488 135.344L18.088 158.744L43.386 184.04ZM43.386 178.626L23.496 158.74L43.386 138.86L63.266 158.74L43.386 178.626ZM43.44 173.278L57.972 158.738L43.44 144.202L28.902 158.74L43.44 173.278ZM43.44 167.858L34.32 158.738L43.44 149.622L52.558 158.742L43.44 167.858Z" fill="#573923"/>
<path d="M16.39 141.438L32.782 125.046L16.39 108.658L-1.66918e-05 125.046L16.39 141.438ZM70.476 141.424L86.868 125.032L70.476 108.64L54.084 125.032L70.476 141.424ZM16.39 136.02L5.41798 125.05L16.392 114.076L27.364 125.046L16.39 136.02ZM70.476 136.008L59.502 125.034L70.476 114.06L81.45 125.032L70.476 136.008ZM16.392 130.246L21.588 125.046L16.392 119.85L11.192 125.046L16.392 130.246ZM70.476 130.23L75.676 125.03L70.476 119.836L65.28 125.036L70.476 130.23Z" fill="#1E1E1E"/>
</svg>
